IKResults
version=1
nRows=10
nColumns=40
inDegrees=yes

Units are S.I. units (second, meters, Newtons, ...)
Angles are in degrees.

endheader
time	pelvis_tilt	pelvis_list	pelvis_rotation	pelvis_tx	pelvis_ty	pelvis_tz	hip_flexion_r	hip_adduction_r	hip_rotation_r	knee_angle_r	knee_angle_r_beta	ankle_angle_r	subtalar_angle_r	mtp_angle_r	hip_flexion_l	hip_adduction_l	hip_rotation_l	knee_angle_l	knee_angle_l_beta	ankle_angle_l	subtalar_angle_l	mtp_angle_l	lumbar_extension	lumbar_bending	lumbar_rotation	arm_flex_r	arm_add_r	arm_rot_r	elbow_flex_r	pro_sup_r	wrist_flex_r	wrist_dev_r	arm_flex_l	arm_add_l	arm_rot_l	elbow_flex_l	pro_sup_l	wrist_flex_l	wrist_dev_l
      0.00000000	     14.31613572	      7.77408300	     -4.09502873	     -0.99818961	      0.94103623	      1.43657050	    -10.69506949	    -12.98239181	     -3.09661225	    -58.73351043	     -1.02509314	     -2.18316684	    -16.87425764	     17.51546662	     -9.19110709	     -9.65078421	     25.28589234	    -11.84018323	     -0.20665018	      4.94414099	     -9.47373254	    -12.96262368	    -25.34781822	     -9.66758589	      0.84145384	     -2.28671378	    -12.82322704	      3.59842004	     24.66083691	     89.95437384	      0.00000000	      0.00000000	      6.51079461	      8.98016696	     18.59226113	     21.13099020	     89.95437384	      0.00000000	      0.00000000
      0.01000000	     14.39323314	      7.53794008	     -3.65823130	     -0.98890670	      0.94214023	      1.43524583	     -9.33663911	    -12.33261674	     -2.79423518	    -59.08944668	     -1.03130540	     -0.23701342	    -17.19327302	     17.10112151	    -10.11778518	     -9.47411580	     24.75601643	    -11.60279892	     -0.20250704	      5.27790420	     -9.68111725	    -12.91538732	    -25.56509377	     -9.23830051	      0.45534008	     -2.38837623	    -12.73981715	      3.59998855	     24.45712775	     89.95437384	      0.00000000	      0.00000000	      7.35721665	      9.00991310	     18.28749760	     21.88784494	     89.95437384	      0.00000000	      0.00000000
      0.02000000	     14.35058848	      7.22447446	     -3.06259094	     -0.97967782	      0.94300482	      1.43382503	     -7.86670364	    -11.64665583	     -2.81984244	    -59.30301231	     -1.03503282	      1.76151928	    -17.24091317	     16.67035749	    -10.92324857	     -9.15633002	     24.14960105	    -11.34944965	     -0.19808526	      5.59789238	     -9.81489374	    -12.84481817	    -25.67652110	     -8.66469585	     -0.06310148	     -2.58912663	    -12.63715764	      3.45401457	     24.45753468	     89.95437384	      0.00000000	      0.00000000	      8.14049735	      9.06619850	     17.89762580	     22.74978399	     89.95437384	      0.00000000	      0.00000000
      0.03000000	     14.35404604	      6.86568541	     -2.45864518	     -0.97039383	      0.94387449	      1.43241557	     -6.47732937	    -10.96858003	     -3.03162563	    -59.27614846	     -1.03456396	      3.36752152	    -17.33114966	     16.36011139	    -11.69816394	     -8.79149878	     23.43617751	    -11.22265644	     -0.19587231	      5.99888985	     -9.74805218	    -12.77311409	    -25.80996739	     -8.02650247	     -0.54388022	     -2.76503430	    -12.53856795	      3.29533089	     24.36012370	     89.95437384	      0.00000000	      0.00000000	      8.95677943	      9.12040811	     17.43382906	     23.52344888	     89.95437384	      0.00000000	      0.00000000
      0.04000000	     14.28869343	      6.62142197	     -1.96729974	     -0.96156562	      0.94456473	      1.43079176	     -4.88533445	    -10.55828746	     -3.35673048	    -59.16869956	     -1.03268862	      4.81163961	    -17.63894649	     16.15026133	    -12.36402696	     -8.56827664	     22.94629619	    -11.04776673	     -0.19281990	      6.27453731	     -9.65064663	    -12.68986738	    -25.87981999	     -7.50729041	     -1.04185732	     -2.92922217	    -12.44281105	      2.96560230	     24.35796332	     89.95437384	      0.00000000	      0.00000000	      9.79827304	      9.15374055	     16.99747812	     24.23359999	     89.95437384	      0.00000000	      0.00000000
      0.05000000	     14.44284303	      6.33955983	     -1.26861181	     -0.95213933	      0.94554168	      1.42927430	     -3.75394732	    -10.03428303	     -3.91355811	    -58.72146937	     -1.02488298	      6.16799340	    -17.69079770	     17.35398270	    -13.50094193	     -8.39635569	     21.40835495	    -10.46563198	     -0.18265974	      6.79576405	     -8.34314322	    -12.86161022	    -26.17531429	     -6.89411310	     -1.53534693	     -3.15753845	    -12.19696576	      2.08967314	     24.22046937	     89.95437384	      0.00000000	      0.00000000	     10.56009100	      9.35000816	     15.54360303	     25.09074037	     89.95437384	      0.00000000	      0.00000000
      0.06000000	     14.32947984	      6.03124861	     -0.81768215	     -0.94308771	      0.94593959	      1.42799684	     -2.16996554	     -9.51229027	     -4.14626974	    -58.26562279	     -1.01692696	      7.33104117	    -17.87208415	     17.21519429	    -14.06285370	     -8.05048701	     20.94532906	    -10.40764955	     -0.18164775	      7.26344642	     -8.39005160	    -12.78826476	    -26.19217850	     -6.34966635	     -1.83065637	     -3.33483446	    -12.20133211	      2.28063213	     24.10272038	     89.95437384	      0.00000000	      0.00000000	     11.42329564	      9.30317889	     15.30628141	     25.87174723	     89.95437384	      0.00000000	      0.00000000
      0.07000000	     14.20938203	      5.82271843	     -0.54268451	     -0.93393425	      0.94612806	      1.42663633	     -0.52138013	     -9.30554851	     -4.58850572	    -57.71109574	     -1.00724864	      8.07266960	    -18.02919277	     17.03566427	    -14.58607216	     -7.87095637	     20.82709528	    -10.38216808	     -0.18120302	      7.56639559	     -8.30973697	    -12.66890850	    -26.12469940	     -5.93264182	     -2.03602865	     -3.46374198	    -12.21001108	      2.35724597	     23.85879992	     89.95437384	      0.00000000	      0.00000000	     12.24175668	      9.23232116	     15.02696485	     26.56075727	     89.95437384	      0.00000000	      0.00000000
      0.08000000	     14.18914102	      5.27772714	      0.02519088	     -0.92483602	      0.94649508	      1.42560039	      0.76191482	     -8.47748729	     -5.00365482	    -56.72459349	     -0.99003092	      9.13344476	    -18.08136040	     17.30374523	    -15.23658442	     -7.22955628	     19.88908564	    -10.37390989	     -0.18105888	      8.24163437	     -8.02642350	    -12.62987743	    -26.23010213	     -5.11550762	     -2.44333312	     -3.53150678	    -12.11181962	      2.28904165	     23.60099268	     89.95437384	      0.00000000	      0.00000000	     12.81163344	      9.37170548	     14.14693251	     27.73829529	     89.95437384	      0.00000000	      0.00000000
      0.09000000	     14.01281219	      5.11919733	      0.20674605	     -0.91548701	      0.94637176	      1.42450647	      2.39324155	     -8.33248685	     -5.42024993	    -55.81586120	     -0.97417055	      9.59744713	    -18.15393452	     17.13699068	    -15.69240643	     -7.09830972	     19.85165229	    -10.37743525	     -0.18112041	      8.55854588	     -7.86574478	    -12.48196564	    -26.06992255	     -4.80281417	     -2.58153976	     -3.76713798	    -12.10022433	      2.29017675	     23.49706263	     89.95437384	      0.00000000	      0.00000000	     13.52452668	      9.31560913	     13.87409260	     28.58447399	     89.95437384	      0.00000000	      0.00000000
